<?xml version="1.0" encoding="UTF-8" standalone="no"?>
<svg
   xmlns:dc="http://purl.org/dc/elements/1.1/"
   xmlns:cc="http://creativecommons.org/ns#"
   xmlns:rdf="http://www.w3.org/1999/02/22-rdf-syntax-ns#"
   xmlns:svg="http://www.w3.org/2000/svg"
   xmlns="http://www.w3.org/2000/svg"
   width="143.96677"
   height="55.323463"
   viewBox="0 0 38.091205 14.637667"
   version="1.1"
   id="svg8">
  <defs
     id="defs2" />
  <metadata
     id="metadata5">
    <rdf:RDF>
      <cc:Work
         rdf:about="">
        <dc:format>image/svg+xml</dc:format>
        <dc:type
           rdf:resource="http://purl.org/dc/dcmitype/StillImage" />
        <dc:title></dc:title>
      </cc:Work>
    </rdf:RDF>
  </metadata>
  <g
     id="layer1">
    <g
       id="g924"
       transform="translate(-30.293733,-12.016347)">
      <g
         aria-label="FOOTWEAR"
         id="text16"
         style="font-style:normal;font-weight:normal;font-size:10.5833px;line-height:1.25;font-family:sans-serif;letter-spacing:0.396875px;fill:none;fill-opacity:1;stroke:#000000;stroke-width:0.555625;stroke-miterlimit:4;stroke-dasharray:none;stroke-opacity:1;paint-order:normal">
        <path
           d="m 34.064861,20.552285 h -2.170403 q -0.201537,0 -0.294555,0.129191 -0.09302,0.12919 -0.09302,0.315225 v 1.596796 h 2.346103 v 0.795815 h -2.346103 v 2.96105 h -0.93534 v -5.524193 q 0,-0.470254 0.403074,-0.785479 0.382405,-0.30489 0.857827,-0.30489 h 2.232414 z"
           style="font-style:normal;font-variant:normal;font-weight:bold;font-stretch:normal;font-family:Uroob;-inkscape-font-specification:'Uroob Bold';fill:none;stroke:#000000;stroke-width:0.555625;stroke-miterlimit:4;stroke-dasharray:none;stroke-opacity:1;paint-order:normal"
           id="path34" />
        <path
           d="m 38.709525,25.063623 q 0,0.532266 -0.397907,0.919838 -0.382404,0.372069 -0.93534,0.372069 h -1.033526 q -0.552936,0 -0.956011,-0.372069 -0.408242,-0.372069 -0.408242,-0.919838 v -4.030749 q 0,-0.552936 0.408242,-0.930173 0.403075,-0.366901 0.956011,-0.366901 h 1.033526 q 0.542601,0 0.93534,0.377237 0.397907,0.377236 0.397907,0.919837 z m -0.93534,-0.170532 v -3.689685 q 0,-0.41341 -0.289387,-0.594277 -0.09302,-0.05684 -0.222208,-0.05684 h -0.857826 q -0.227376,0 -0.372069,0.21704 -0.118856,0.180867 -0.118856,0.434081 v 3.689685 q 0,0.408243 0.273885,0.58911 0.09302,0.06201 0.21704,0.06201 h 0.857826 q 0.237711,0 0.387572,-0.211872 0.124023,-0.191203 0.124023,-0.439249 z"
           style="font-style:normal;font-variant:normal;font-weight:bold;font-stretch:normal;font-family:Uroob;-inkscape-font-specification:'Uroob Bold';fill:none;stroke:#000000;stroke-width:0.555625;stroke-miterlimit:4;stroke-dasharray:none;stroke-opacity:1;paint-order:normal"
           id="path36" />
        <path
           d="m 43.364525,25.063623 q 0,0.532266 -0.397908,0.919838 -0.382404,0.372069 -0.93534,0.372069 h -1.033525 q -0.552936,0 -0.956011,-0.372069 -0.408243,-0.372069 -0.408243,-0.919838 v -4.030749 q 0,-0.552936 0.408243,-0.930173 0.403075,-0.366901 0.956011,-0.366901 h 1.033525 q 0.542601,0 0.93534,0.377237 0.397908,0.377236 0.397908,0.919837 z m -0.935341,-0.170532 v -3.689685 q 0,-0.41341 -0.289387,-0.594277 -0.09302,-0.05684 -0.222208,-0.05684 h -0.857826 q -0.227375,0 -0.372069,0.21704 -0.118855,0.180867 -0.118855,0.434081 v 3.689685 q 0,0.408243 0.273884,0.58911 0.09302,0.06201 0.21704,0.06201 h 0.857826 q 0.237711,0 0.387572,-0.211872 0.124023,-0.191203 0.124023,-0.439249 z"
           style="font-style:normal;font-variant:normal;font-weight:bold;font-stretch:normal;font-family:Uroob;-inkscape-font-specification:'Uroob Bold';fill:none;stroke:#000000;stroke-width:0.555625;stroke-miterlimit:4;stroke-dasharray:none;stroke-opacity:1;paint-order:normal"
           id="path38" />
        <path
           d="m 48.045363,19.751303 q 0.232543,0 0.263549,0.258381 v 0.594277 h -1.529618 v 5.751569 h -0.945676 v -5.751569 h -1.529617 v -0.594277 q 0,-0.113688 0.07751,-0.186034 0.08268,-0.07235 0.191202,-0.07235 z"
           style="font-style:normal;font-variant:normal;font-weight:bold;font-stretch:normal;font-family:Uroob;-inkscape-font-specification:'Uroob Bold';fill:none;stroke:#000000;stroke-width:0.555625;stroke-miterlimit:4;stroke-dasharray:none;stroke-opacity:1;paint-order:normal"
           id="path40" />
        <path
           d="m 49.227717,19.973511 q 0,-0.253214 0.32556,-0.222208 h 0.630451 v 3.870552 l 1.095537,-2.552807 h 0.682126 l 1.100705,2.769848 v -4.087593 h 0.594277 q 0.06201,-0.0052 0.118855,-0.0052 0.191203,0 0.227376,0.139526 0.02584,0.113688 0.01034,0.201538 v 6.268331 h -0.800982 l -1.550288,-3.508819 h -0.07751 l -1.550288,3.508819 h -0.800983 v -6.268331 q -0.01033,-0.05684 -0.0052,-0.113688 z"
           style="font-style:normal;font-variant:normal;font-weight:bold;font-stretch:normal;font-family:Uroob;-inkscape-font-specification:'Uroob Bold';fill:none;stroke:#000000;stroke-width:0.555625;stroke-miterlimit:4;stroke-dasharray:none;stroke-opacity:1;paint-order:normal"
           id="path42" />
        <path
           d="M 58.414724,26.35553 H 56.18231 q -0.48059,0 -0.857826,-0.299723 -0.403075,-0.315225 -0.403075,-0.780311 v -4.449327 q 0,-0.470254 0.403075,-0.785479 0.382404,-0.30489 0.857826,-0.30489 h 2.232414 v 0.816485 h -2.170403 q -0.201537,0 -0.294555,0.129191 -0.09302,0.12919 -0.09302,0.315225 v 1.596796 h 2.346103 v 0.795815 h -2.346103 v 1.715652 q 0,0.186035 0.09302,0.315225 0.09302,0.129191 0.294555,0.129191 h 2.170403 z"
           style="font-style:normal;font-variant:normal;font-weight:bold;font-stretch:normal;font-family:Uroob;-inkscape-font-specification:'Uroob Bold';fill:none;stroke:#000000;stroke-width:0.555625;stroke-miterlimit:4;stroke-dasharray:none;stroke-opacity:1;paint-order:normal"
           id="path44" />
        <path
           d="m 63.162742,26.35553 h -0.935341 v -2.811189 h -1.963698 v 2.811189 h -0.935341 v -5.529361 q 0,-0.470254 0.403075,-0.785479 0.382405,-0.30489 0.857826,-0.30489 h 1.343583 q 0.465087,0 0.837156,0.30489 0.39274,0.32556 0.39274,0.785479 z m -0.935341,-3.607004 v -1.751825 q 0,-0.186035 -0.10852,-0.315225 -0.103353,-0.129191 -0.299722,-0.129191 h -1.167884 q -0.201538,0 -0.294555,0.129191 -0.09302,0.12919 -0.09302,0.315225 v 1.751825 z"
           style="font-style:normal;font-variant:normal;font-weight:bold;font-stretch:normal;font-family:Uroob;-inkscape-font-specification:'Uroob Bold';fill:none;stroke:#000000;stroke-width:0.555625;stroke-miterlimit:4;stroke-dasharray:none;stroke-opacity:1;paint-order:normal"
           id="path46" />
        <path
           d="M 68.107126,26.3762 H 67.135613 L 65.766192,23.513335 H 65.027221 V 26.3762 h -0.940508 v -6.624897 h 2.552807 q 0.506428,0 0.862994,0.330728 0.366902,0.335896 0.366902,0.847491 v 1.550288 q 0,0.73897 -0.630451,0.961178 -0.19637,0.07235 -0.43408,0.07235 z m -1.173051,-4.118598 v -1.157549 q 0,-0.346231 -0.268716,-0.501259 -0.08268,-0.04651 -0.191203,-0.04651 h -1.446935 v 2.149733 h 1.601964 q 0.268717,0 0.294555,-0.28422 0.01034,-0.07751 0.01034,-0.160196 z"
           style="font-style:normal;font-variant:normal;font-weight:bold;font-stretch:normal;font-family:Uroob;-inkscape-font-specification:'Uroob Bold';fill:none;stroke:#000000;stroke-width:0.555625;stroke-miterlimit:4;stroke-dasharray:none;stroke-opacity:1;paint-order:normal"
           id="path48" />
      </g>
      <g
         aria-label="SOCCER"
         id="text16-3"
         style="font-style:normal;font-weight:normal;font-size:10.5833px;line-height:1.25;font-family:sans-serif;letter-spacing:0.396875px;fill:#000000;fill-opacity:1;stroke:#000000;stroke-width:0.555625;stroke-miterlimit:4;stroke-dasharray:none;stroke-opacity:1;paint-order:normal">
        <path
           d="m 37.090674,13.131315 q -0.392739,0 -0.392739,0.408242 v 1.271236 q 0,0.387572 0.392739,0.387572 h 1.369422 q 0.465086,0 0.754473,0.335896 0.28422,0.325561 0.28422,0.785479 v 1.446936 q 0,0.475421 -0.30489,0.80615 -0.315226,0.346231 -0.78548,0.346231 h -1.601964 q -0.506427,0 -0.800982,-0.330729 -0.279052,-0.320392 -0.279052,-0.82682 h 0.888832 q -0.01034,0.180867 0.08785,0.258381 0.103353,0.07235 0.268717,0.07235 h 1.214392 q 0.39274,0 0.39274,-0.387572 v -1.271236 q 0,-0.403075 -0.39274,-0.403075 h -1.317744 q -0.470255,0 -0.78548,-0.346231 -0.30489,-0.335896 -0.30489,-0.811317 v -1.446936 q 0,-0.465086 0.279052,-0.785479 0.30489,-0.341063 0.759641,-0.341063 h 1.601965 q 0.475421,0 0.759641,0.32556 0.268716,0.30489 0.268716,0.795815 H 38.55828 q 0.01034,-0.289387 -0.356566,-0.289387 z"
           style="font-style:normal;font-variant:normal;font-weight:bold;font-stretch:normal;font-family:Uroob;-inkscape-font-specification:'Uroob Bold';fill:#000000;fill-opacity:1;stroke:#000000;stroke-width:0.555625;stroke-miterlimit:4;stroke-dasharray:none;stroke-opacity:1;paint-order:normal"
           id="path21" />
        <path
           d="m 44.14862,17.621982 q 0,0.532266 -0.397907,0.919838 -0.382404,0.372069 -0.93534,0.372069 h -1.033526 q -0.552936,0 -0.956011,-0.372069 -0.408242,-0.372069 -0.408242,-0.919838 v -4.030749 q 0,-0.552936 0.408242,-0.930172 0.403075,-0.366902 0.956011,-0.366902 h 1.033526 q 0.542601,0 0.93534,0.377237 0.397907,0.377237 0.397907,0.919837 z m -0.93534,-0.170531 v -3.689686 q 0,-0.41341 -0.289387,-0.594277 -0.09302,-0.05684 -0.222208,-0.05684 h -0.857826 q -0.227376,0 -0.372069,0.21704 -0.118856,0.180867 -0.118856,0.434081 v 3.689686 q 0,0.408242 0.273885,0.589109 0.09302,0.06201 0.21704,0.06201 h 0.857826 q 0.237711,0 0.387572,-0.211873 0.124023,-0.191202 0.124023,-0.439248 z"
           style="font-style:normal;font-variant:normal;font-weight:bold;font-stretch:normal;font-family:Uroob;-inkscape-font-specification:'Uroob Bold';fill:#000000;fill-opacity:1;stroke:#000000;stroke-width:0.555625;stroke-miterlimit:4;stroke-dasharray:none;stroke-opacity:1;paint-order:normal"
           id="path23" />
        <path
           d="m 47.713251,13.611904 q 0,-0.50126 -0.408243,-0.50126 h -0.909502 q -0.201537,0 -0.294555,0.129191 -0.09302,0.12919 -0.09302,0.315225 v 4.108263 q 0,0.186035 0.09302,0.315225 0.09302,0.129191 0.294555,0.129191 h 0.909502 q 0.397908,0 0.408243,-0.459919 0,-0.124023 0,-0.23771 h 0.93534 v 0.423745 q 0,0.465086 -0.335895,0.775144 -0.335896,0.30489 -0.790647,0.30489 h -1.188554 q -0.48059,0 -0.857826,-0.299722 -0.403075,-0.315226 -0.403075,-0.780312 v -4.449327 q 0,-0.470254 0.403075,-0.785479 0.382404,-0.30489 0.857826,-0.30489 h 1.188554 q 0.459919,0 0.790647,0.315225 0.335895,0.315225 0.335895,0.775144 v 0.475422 h -0.93534 z"
           style="font-style:normal;font-variant:normal;font-weight:bold;font-stretch:normal;font-family:Uroob;-inkscape-font-specification:'Uroob Bold';fill:#000000;fill-opacity:1;stroke:#000000;stroke-width:0.555625;stroke-miterlimit:4;stroke-dasharray:none;stroke-opacity:1;paint-order:normal"
           id="path25" />
        <path
           d="m 52.182216,13.611904 q 0,-0.50126 -0.408243,-0.50126 h -0.909502 q -0.201538,0 -0.294555,0.129191 -0.09302,0.12919 -0.09302,0.315225 v 4.108263 q 0,0.186035 0.09302,0.315225 0.09302,0.129191 0.294555,0.129191 h 0.909502 q 0.397907,0 0.408243,-0.459919 0,-0.124023 0,-0.23771 h 0.93534 v 0.423745 q 0,0.465086 -0.335896,0.775144 -0.335895,0.30489 -0.790647,0.30489 h -1.188554 q -0.480589,0 -0.857826,-0.299722 -0.403075,-0.315226 -0.403075,-0.780312 v -4.449327 q 0,-0.470254 0.403075,-0.785479 0.382405,-0.30489 0.857826,-0.30489 h 1.188554 q 0.459919,0 0.790647,0.315225 0.335896,0.315225 0.335896,0.775144 v 0.475422 h -0.93534 z"
           style="font-style:normal;font-variant:normal;font-weight:bold;font-stretch:normal;font-family:Uroob;-inkscape-font-specification:'Uroob Bold';fill:#000000;fill-opacity:1;stroke:#000000;stroke-width:0.555625;stroke-miterlimit:4;stroke-dasharray:none;stroke-opacity:1;paint-order:normal"
           id="path27" />
        <path
           d="m 57.503838,18.913889 h -2.232415 q -0.480589,0 -0.857826,-0.299722 -0.403075,-0.315226 -0.403075,-0.780312 v -4.449327 q 0,-0.470254 0.403075,-0.785479 0.382404,-0.30489 0.857826,-0.30489 h 2.232415 v 0.816485 h -2.170404 q -0.201537,0 -0.294554,0.129191 -0.09302,0.12919 -0.09302,0.315225 v 1.596797 h 2.346103 v 0.795814 H 54.94586 v 1.715652 q 0,0.186035 0.09302,0.315225 0.09302,0.129191 0.294554,0.129191 h 2.170404 z"
           style="font-style:normal;font-variant:normal;font-weight:bold;font-stretch:normal;font-family:Uroob;-inkscape-font-specification:'Uroob Bold';fill:#000000;fill-opacity:1;stroke:#000000;stroke-width:0.555625;stroke-miterlimit:4;stroke-dasharray:none;stroke-opacity:1;paint-order:normal"
           id="path29" />
        <path
           d="m 62.437889,18.934559 h -0.971514 l -1.369421,-2.862865 h -0.73897 v 2.862865 h -0.940508 v -6.624897 h 2.552807 q 0.506428,0 0.862994,0.330728 0.366901,0.335896 0.366901,0.847491 v 1.550288 q 0,0.73897 -0.63045,0.961178 -0.19637,0.07235 -0.434081,0.07235 z m -1.173051,-4.118598 v -1.157548 q 0,-0.346231 -0.268717,-0.50126 -0.08268,-0.04651 -0.191202,-0.04651 h -1.446935 v 2.149733 h 1.601964 q 0.268717,0 0.294555,-0.28422 0.01033,-0.07751 0.01033,-0.160196 z"
           style="font-style:normal;font-variant:normal;font-weight:bold;font-stretch:normal;font-family:Uroob;-inkscape-font-specification:'Uroob Bold';fill:#000000;fill-opacity:1;stroke:#000000;stroke-width:0.555625;stroke-miterlimit:4;stroke-dasharray:none;stroke-opacity:1;paint-order:normal"
           id="path31" />
      </g>
    </g>
  </g>
</svg>
